# MagicaVoxel @ Ephtracy

# group
o 

# material
mtllib balcony.vox.mtl
usemtl palette

# normals
vn -1 0 0
vn 1 0 0
vn 0 0 1
vn 0 0 -1
vn 0 -1 0
vn 0 1 0

# texcoords
vt 0.958984 0.5
vt 0.962891 0.5

# verts
v -6 0 -0.5
v -6 0 -1
v -6 8 -0.5
v -6 8 -1
v -5.7 0.3 -0.4
v -5.7 0.3 -0.5
v -5.7 7.7 -0.4
v -5.7 7.7 -0.5
v -4.9 2.6 -3.72529e-08
v -4.9 2.6 -0.2
v -4.9 2.7 -3.72529e-08
v -4.9 2.7 -0.2
v -4.9 2.7 -0.4
v -4.9 2.8 -0.2
v -4.9 2.8 -0.4
v -3.7 2.8 -0.5
v -3.7 2.8 -0.9
v -3.7 6.6 -0.5
v -3.7 6.6 -0.9
v -2.4 2.8 -0.4
v -2.4 2.8 -1
v -2.4 6.6 -0.4
v -2.4 6.6 -1
v 1.4 0 -0.5
v 1.4 0 -1
v 1.4 0.3 -0.4
v 1.4 0.3 -0.5
v 1.4 5.5 -0.4
v 1.4 5.5 -1
v 2.4 2.6 -3.72529e-08
v 2.4 2.6 -0.2
v 2.4 2.7 -3.72529e-08
v 2.4 2.7 -0.2
v 2.4 2.7 -0.4
v 2.4 2.8 -0.2
v 2.4 2.8 -0.4
v 3.6 2.8 -0.5
v 3.6 2.8 -0.9
v 3.6 6.6 -0.5
v 3.6 6.6 -0.9
v 4.9 2.8 -0.4
v 4.9 2.8 -1
v 4.9 6.6 -0.4
v 4.9 6.6 -1
v -4.8 2.8 -0.4
v -4.8 2.8 -1
v -4.8 6.6 -0.4
v -4.8 6.6 -1
v -3.5 2.8 -0.5
v -3.5 2.8 -0.9
v -3.5 6.6 -0.5
v -3.5 6.6 -0.9
v -2.3 2.6 -3.72529e-08
v -2.3 2.6 -0.2
v -2.3 2.7 -3.72529e-08
v -2.3 2.7 -0.2
v -2.3 2.7 -0.4
v -2.3 2.8 -0.2
v -2.3 2.8 -0.4
v -1.3 0 -0.5
v -1.3 0 -1
v -1.3 0.3 -0.4
v -1.3 0.3 -0.5
v -1.3 5.5 -0.4
v -1.3 5.5 -1
v 2.5 2.8 -0.4
v 2.5 2.8 -1
v 2.5 6.6 -0.4
v 2.5 6.6 -1
v 3.8 2.8 -0.5
v 3.8 2.8 -0.9
v 3.8 6.6 -0.5
v 3.8 6.6 -0.9
v 5 2.6 -3.72529e-08
v 5 2.6 -0.2
v 5 2.7 -3.72529e-08
v 5 2.7 -0.2
v 5 2.7 -0.4
v 5 2.8 -0.2
v 5 2.8 -0.4
v 5.7 0.3 -0.4
v 5.7 0.3 -0.5
v 5.7 7.7 -0.4
v 5.7 7.7 -0.5
v 6 0 -0.5
v 6 0 -1
v 6 8 -0.5
v 6 8 -1
v -4.9 2.6 -3.72529e-08
v -4.9 2.7 -3.72529e-08
v -2.3 2.6 -3.72529e-08
v -2.3 2.7 -3.72529e-08
v 2.4 2.6 -3.72529e-08
v 2.4 2.7 -3.72529e-08
v 5 2.6 -3.72529e-08
v 5 2.7 -3.72529e-08
v -4.9 2.7 -0.2
v -4.9 2.8 -0.2
v -2.3 2.7 -0.2
v -2.3 2.8 -0.2
v 2.4 2.7 -0.2
v 2.4 2.8 -0.2
v 5 2.7 -0.2
v 5 2.8 -0.2
v -5.7 0.3 -0.4
v -5.7 7.7 -0.4
v -4.9 2.7 -0.4
v -4.9 2.8 -0.4
v -4.9 6.7 -0.4
v -4.8 2.8 -0.4
v -4.8 6.6 -0.4
v -2.4 2.8 -0.4
v -2.4 6.6 -0.4
v -2.3 2.7 -0.4
v -2.3 2.8 -0.4
v -2.3 6.7 -0.4
v -1.4 0.3 -0.4
v -1.4 5.5 -0.4
v -1.3 0.3 -0.4
v -1.3 5.5 -0.4
v -1.3 5.6 -0.4
v 1.4 0.3 -0.4
v 1.4 5.5 -0.4
v 1.4 5.6 -0.4
v 1.5 0.3 -0.4
v 1.5 5.5 -0.4
v 2.4 2.7 -0.4
v 2.4 2.8 -0.4
v 2.4 6.7 -0.4
v 2.5 2.8 -0.4
v 2.5 6.6 -0.4
v 4.9 2.8 -0.4
v 4.9 6.6 -0.4
v 5 2.7 -0.4
v 5 2.8 -0.4
v 5 6.7 -0.4
v 5.7 0.3 -0.4
v 5.7 7.7 -0.4
v -6 0 -0.5
v -6 8 -0.5
v -5.7 0.3 -0.5
v -5.7 7.7 -0.5
v -3.7 2.8 -0.5
v -3.7 6.6 -0.5
v -3.5 2.8 -0.5
v -3.5 6.6 -0.5
v -1.4 0 -0.5
v -1.4 0.3 -0.5
v -1.3 0 -0.5
v -1.3 0.3 -0.5
v 1.4 0 -0.5
v 1.4 0.3 -0.5
v 1.5 0 -0.5
v 1.5 0.3 -0.5
v 3.6 2.8 -0.5
v 3.6 6.6 -0.5
v 3.8 2.8 -0.5
v 3.8 6.6 -0.5
v 5.7 0.3 -0.5
v 5.7 7.7 -0.5
v 6 0 -0.5
v 6 8 -0.5
v -4.9 2.6 -0.2
v -4.9 2.7 -0.2
v -2.3 2.6 -0.2
v -2.3 2.7 -0.2
v 2.4 2.6 -0.2
v 2.4 2.7 -0.2
v 5 2.6 -0.2
v 5 2.7 -0.2
v -3.7 2.8 -0.9
v -3.7 6.6 -0.9
v -3.5 2.8 -0.9
v -3.5 6.6 -0.9
v 3.6 2.8 -0.9
v 3.6 6.6 -0.9
v 3.8 2.8 -0.9
v 3.8 6.6 -0.9
v -6 0 -1
v -6 8 -1
v -4.9 2.7 -1
v -4.9 6.7 -1
v -4.8 2.8 -1
v -4.8 6.6 -1
v -2.4 2.8 -1
v -2.4 6.6 -1
v -2.3 2.7 -1
v -2.3 6.7 -1
v -1.4 0 -1
v -1.4 5.5 -1
v -1.3 0 -1
v -1.3 5.5 -1
v -1.3 5.6 -1
v 1.4 0 -1
v 1.4 5.5 -1
v 1.4 5.6 -1
v 1.5 0 -1
v 1.5 5.5 -1
v 2.4 2.7 -1
v 2.4 6.7 -1
v 2.5 2.8 -1
v 2.5 6.6 -1
v 4.9 2.8 -1
v 4.9 6.6 -1
v 5 2.7 -1
v 5 6.7 -1
v 6 0 -1
v 6 8 -1
v -6 0 -0.5
v -1.4 0 -0.5
v -1.3 0 -0.5
v 1.4 0 -0.5
v 1.5 0 -0.5
v 6 0 -0.5
v -6 0 -1
v -1.4 0 -1
v -1.3 0 -1
v 1.4 0 -1
v 1.5 0 -1
v 6 0 -1
v -5.7 0.3 -0.4
v -1.4 0.3 -0.4
v -1.3 0.3 -0.4
v 1.4 0.3 -0.4
v 1.5 0.3 -0.4
v 5.7 0.3 -0.4
v -5.7 0.3 -0.5
v -1.4 0.3 -0.5
v -1.3 0.3 -0.5
v 1.4 0.3 -0.5
v 1.5 0.3 -0.5
v 5.7 0.3 -0.5
v -4.9 2.6 -3.72529e-08
v -2.3 2.6 -3.72529e-08
v 2.4 2.6 -3.72529e-08
v 5 2.6 -3.72529e-08
v -4.9 2.6 -0.2
v -2.3 2.6 -0.2
v 2.4 2.6 -0.2
v 5 2.6 -0.2
v -4.9 2.7 -0.2
v -2.3 2.7 -0.2
v 2.4 2.7 -0.2
v 5 2.7 -0.2
v -4.9 2.7 -0.4
v -2.3 2.7 -0.4
v 2.4 2.7 -0.4
v 5 2.7 -0.4
v -1.3 5.5 -0.4
v 1.4 5.5 -0.4
v -1.3 5.5 -1
v 1.4 5.5 -1
v -4.8 6.6 -0.4
v -2.4 6.6 -0.4
v 2.5 6.6 -0.4
v 4.9 6.6 -0.4
v -3.7 6.6 -0.5
v -3.5 6.6 -0.5
v 3.6 6.6 -0.5
v 3.8 6.6 -0.5
v -3.7 6.6 -0.9
v -3.5 6.6 -0.9
v 3.6 6.6 -0.9
v 3.8 6.6 -0.9
v -4.8 6.6 -1
v -2.4 6.6 -1
v 2.5 6.6 -1
v 4.9 6.6 -1
v -4.9 2.7 -3.72529e-08
v -2.3 2.7 -3.72529e-08
v 2.4 2.7 -3.72529e-08
v 5 2.7 -3.72529e-08
v -4.9 2.7 -0.2
v -2.3 2.7 -0.2
v 2.4 2.7 -0.2
v 5 2.7 -0.2
v -4.9 2.8 -0.2
v -2.3 2.8 -0.2
v 2.4 2.8 -0.2
v 5 2.8 -0.2
v -4.9 2.8 -0.4
v -4.8 2.8 -0.4
v -2.4 2.8 -0.4
v -2.3 2.8 -0.4
v 2.4 2.8 -0.4
v 2.5 2.8 -0.4
v 4.9 2.8 -0.4
v 5 2.8 -0.4
v -3.7 2.8 -0.5
v -3.5 2.8 -0.5
v 3.6 2.8 -0.5
v 3.8 2.8 -0.5
v -3.7 2.8 -0.9
v -3.5 2.8 -0.9
v 3.6 2.8 -0.9
v 3.8 2.8 -0.9
v -4.8 2.8 -1
v -2.4 2.8 -1
v 2.5 2.8 -1
v 4.9 2.8 -1
v -5.7 7.7 -0.4
v 5.7 7.7 -0.4
v -5.7 7.7 -0.5
v 5.7 7.7 -0.5
v -6 8 -0.5
v 6 8 -0.5
v -6 8 -1
v 6 8 -1

# faces
f 3/2/1 2/2/1 1/2/1
f 4/2/1 2/2/1 3/2/1
f 7/2/1 6/2/1 5/2/1
f 8/2/1 6/2/1 7/2/1
f 11/1/1 10/1/1 9/1/1
f 12/1/1 10/1/1 11/1/1
f 14/1/1 13/1/1 12/1/1
f 15/1/1 13/1/1 14/1/1
f 18/1/1 17/1/1 16/1/1
f 19/1/1 17/1/1 18/1/1
f 22/1/1 21/1/1 20/1/1
f 23/1/1 21/1/1 22/1/1
f 27/1/1 25/1/1 24/1/1
f 28/1/1 27/1/1 26/1/1
f 29/1/1 25/1/1 27/1/1
f 29/1/1 27/1/1 28/1/1
f 32/1/1 31/1/1 30/1/1
f 33/1/1 31/1/1 32/1/1
f 35/1/1 34/1/1 33/1/1
f 36/1/1 34/1/1 35/1/1
f 39/1/1 38/1/1 37/1/1
f 40/1/1 38/1/1 39/1/1
f 43/1/1 42/1/1 41/1/1
f 44/1/1 42/1/1 43/1/1
f 45/1/2 46/1/2 47/1/2
f 47/1/2 46/1/2 48/1/2
f 49/1/2 50/1/2 51/1/2
f 51/1/2 50/1/2 52/1/2
f 53/1/2 54/1/2 55/1/2
f 55/1/2 54/1/2 56/1/2
f 56/1/2 57/1/2 58/1/2
f 58/1/2 57/1/2 59/1/2
f 60/1/2 61/1/2 63/1/2
f 62/1/2 63/1/2 64/1/2
f 63/1/2 61/1/2 65/1/2
f 64/1/2 63/1/2 65/1/2
f 66/1/2 67/1/2 68/1/2
f 68/1/2 67/1/2 69/1/2
f 70/1/2 71/1/2 72/1/2
f 72/1/2 71/1/2 73/1/2
f 74/1/2 75/1/2 76/1/2
f 76/1/2 75/1/2 77/1/2
f 77/1/2 78/1/2 79/1/2
f 79/1/2 78/1/2 80/1/2
f 81/2/2 82/2/2 83/2/2
f 83/2/2 82/2/2 84/2/2
f 85/2/2 86/2/2 87/2/2
f 87/2/2 86/2/2 88/2/2
f 91/1/3 90/1/3 89/1/3
f 92/1/3 90/1/3 91/1/3
f 95/1/3 94/1/3 93/1/3
f 96/1/3 94/1/3 95/1/3
f 99/1/3 98/1/3 97/1/3
f 100/1/3 98/1/3 99/1/3
f 103/1/3 102/1/3 101/1/3
f 104/1/3 102/1/3 103/1/3
f 107/2/3 106/2/3 105/2/3
f 108/2/3 106/2/3 107/2/3
f 109/2/3 106/2/3 108/2/3
f 110/1/3 109/1/3 108/1/3
f 111/1/3 109/1/3 110/1/3
f 113/1/3 109/1/3 111/1/3
f 114/2/3 107/2/3 105/2/3
f 115/1/3 113/1/3 112/1/3
f 116/2/3 106/2/3 109/2/3
f 116/1/3 109/1/3 113/1/3
f 116/1/3 113/1/3 115/1/3
f 117/2/3 114/2/3 105/2/3
f 117/2/3 115/2/3 114/2/3
f 117/2/3 116/2/3 115/2/3
f 118/2/3 116/2/3 117/2/3
f 119/1/3 118/1/3 117/1/3
f 120/2/3 116/2/3 118/2/3
f 120/1/3 118/1/3 119/1/3
f 121/2/3 116/2/3 120/2/3
f 123/1/3 121/1/3 120/1/3
f 124/2/3 116/2/3 121/2/3
f 124/1/3 121/1/3 123/1/3
f 125/1/3 123/1/3 122/1/3
f 126/2/3 124/2/3 123/2/3
f 126/1/3 123/1/3 125/1/3
f 127/2/3 126/2/3 125/2/3
f 128/2/3 126/2/3 127/2/3
f 129/2/3 106/2/3 116/2/3
f 129/2/3 126/2/3 128/2/3
f 129/2/3 116/2/3 124/2/3
f 129/2/3 124/2/3 126/2/3
f 130/1/3 129/1/3 128/1/3
f 131/1/3 129/1/3 130/1/3
f 133/1/3 129/1/3 131/1/3
f 134/2/3 127/2/3 125/2/3
f 135/1/3 133/1/3 132/1/3
f 136/2/3 106/2/3 129/2/3
f 136/1/3 129/1/3 133/1/3
f 136/1/3 133/1/3 135/1/3
f 137/2/3 135/2/3 134/2/3
f 137/2/3 134/2/3 125/2/3
f 137/2/3 136/2/3 135/2/3
f 138/2/3 106/2/3 136/2/3
f 138/2/3 136/2/3 137/2/3
f 141/2/3 140/2/3 139/2/3
f 142/2/3 140/2/3 141/2/3
f 145/1/3 144/1/3 143/1/3
f 146/1/3 144/1/3 145/1/3
f 147/2/3 141/2/3 139/2/3
f 148/2/3 141/2/3 147/2/3
f 149/1/3 148/1/3 147/1/3
f 150/1/3 148/1/3 149/1/3
f 153/1/3 152/1/3 151/1/3
f 154/1/3 152/1/3 153/1/3
f 157/1/3 156/1/3 155/1/3
f 158/1/3 156/1/3 157/1/3
f 159/2/3 154/2/3 153/2/3
f 160/2/3 140/2/3 142/2/3
f 161/2/3 159/2/3 153/2/3
f 161/2/3 160/2/3 159/2/3
f 162/2/3 140/2/3 160/2/3
f 162/2/3 160/2/3 161/2/3
f 163/1/4 164/1/4 165/1/4
f 165/1/4 164/1/4 166/1/4
f 167/1/4 168/1/4 169/1/4
f 169/1/4 168/1/4 170/1/4
f 171/1/4 172/1/4 173/1/4
f 173/1/4 172/1/4 174/1/4
f 175/1/4 176/1/4 177/1/4
f 177/1/4 176/1/4 178/1/4
f 179/2/4 180/2/4 181/2/4
f 181/2/4 180/2/4 182/2/4
f 181/1/4 182/1/4 183/1/4
f 183/1/4 182/1/4 184/1/4
f 181/1/4 183/1/4 185/1/4
f 184/1/4 182/1/4 186/1/4
f 179/2/4 181/2/4 187/2/4
f 185/1/4 186/1/4 187/1/4
f 181/1/4 185/1/4 187/1/4
f 186/1/4 182/1/4 188/1/4
f 187/1/4 186/1/4 188/1/4
f 182/2/4 180/2/4 188/2/4
f 179/2/4 187/2/4 189/2/4
f 187/2/4 188/2/4 189/2/4
f 189/2/4 188/2/4 190/2/4
f 189/1/4 190/1/4 191/1/4
f 190/2/4 188/2/4 192/2/4
f 191/1/4 190/1/4 192/1/4
f 192/2/4 188/2/4 193/2/4
f 192/1/4 193/1/4 195/1/4
f 193/2/4 188/2/4 196/2/4
f 195/1/4 193/1/4 196/1/4
f 194/1/4 195/1/4 197/1/4
f 195/2/4 196/2/4 198/2/4
f 197/1/4 195/1/4 198/1/4
f 197/2/4 198/2/4 199/2/4
f 188/2/4 180/2/4 200/2/4
f 199/2/4 198/2/4 200/2/4
f 196/2/4 188/2/4 200/2/4
f 198/2/4 196/2/4 200/2/4
f 199/1/4 200/1/4 201/1/4
f 201/1/4 200/1/4 202/1/4
f 199/1/4 201/1/4 203/1/4
f 202/1/4 200/1/4 204/1/4
f 197/2/4 199/2/4 205/2/4
f 203/1/4 204/1/4 205/1/4
f 199/1/4 203/1/4 205/1/4
f 204/1/4 200/1/4 206/1/4
f 205/1/4 204/1/4 206/1/4
f 200/2/4 180/2/4 206/2/4
f 197/2/4 205/2/4 207/2/4
f 205/2/4 206/2/4 207/2/4
f 206/2/4 180/2/4 208/2/4
f 207/2/4 206/2/4 208/2/4
f 215/2/5 210/2/5 209/2/5
f 216/1/5 211/1/5 210/1/5
f 216/2/5 210/2/5 215/2/5
f 217/1/5 211/1/5 216/1/5
f 218/1/5 213/1/5 212/1/5
f 219/2/5 214/2/5 213/2/5
f 219/1/5 213/1/5 218/1/5
f 220/2/5 214/2/5 219/2/5
f 227/2/5 222/2/5 221/2/5
f 228/1/5 223/1/5 222/1/5
f 228/2/5 222/2/5 227/2/5
f 229/1/5 223/1/5 228/1/5
f 230/1/5 225/1/5 224/1/5
f 231/2/5 226/2/5 225/2/5
f 231/1/5 225/1/5 230/1/5
f 232/2/5 226/2/5 231/2/5
f 237/1/5 234/1/5 233/1/5
f 238/1/5 234/1/5 237/1/5
f 239/1/5 236/1/5 235/1/5
f 240/1/5 236/1/5 239/1/5
f 245/1/5 242/1/5 241/1/5
f 246/1/5 242/1/5 245/1/5
f 247/1/5 244/1/5 243/1/5
f 248/1/5 244/1/5 247/1/5
f 251/1/5 250/1/5 249/1/5
f 252/1/5 250/1/5 251/1/5
f 257/1/5 254/1/5 253/1/5
f 258/1/5 254/1/5 257/1/5
f 259/1/5 256/1/5 255/1/5
f 260/1/5 256/1/5 259/1/5
f 261/1/5 257/1/5 253/1/5
f 262/1/5 254/1/5 258/1/5
f 263/1/5 259/1/5 255/1/5
f 264/1/5 256/1/5 260/1/5
f 265/1/5 261/1/5 253/1/5
f 265/1/5 262/1/5 261/1/5
f 266/1/5 254/1/5 262/1/5
f 266/1/5 262/1/5 265/1/5
f 267/1/5 264/1/5 263/1/5
f 267/1/5 263/1/5 255/1/5
f 268/1/5 256/1/5 264/1/5
f 268/1/5 264/1/5 267/1/5
f 269/1/6 270/1/6 273/1/6
f 273/1/6 270/1/6 274/1/6
f 271/1/6 272/1/6 275/1/6
f 275/1/6 272/1/6 276/1/6
f 277/1/6 278/1/6 281/1/6
f 281/1/6 278/1/6 282/1/6
f 282/1/6 278/1/6 283/1/6
f 283/1/6 278/1/6 284/1/6
f 279/1/6 280/1/6 285/1/6
f 285/1/6 280/1/6 286/1/6
f 286/1/6 280/1/6 287/1/6
f 287/1/6 280/1/6 288/1/6
f 282/1/6 283/1/6 289/1/6
f 289/1/6 283/1/6 290/1/6
f 286/1/6 287/1/6 291/1/6
f 291/1/6 287/1/6 292/1/6
f 282/1/6 289/1/6 293/1/6
f 290/1/6 283/1/6 294/1/6
f 286/1/6 291/1/6 295/1/6
f 292/1/6 287/1/6 296/1/6
f 282/1/6 293/1/6 297/1/6
f 293/1/6 294/1/6 297/1/6
f 294/1/6 283/1/6 298/1/6
f 297/1/6 294/1/6 298/1/6
f 295/1/6 296/1/6 299/1/6
f 286/1/6 295/1/6 299/1/6
f 296/1/6 287/1/6 300/1/6
f 299/1/6 296/1/6 300/1/6
f 301/2/6 302/2/6 303/2/6
f 303/2/6 302/2/6 304/2/6
f 305/2/6 306/2/6 307/2/6
f 307/2/6 306/2/6 308/2/6
